<svg width="1321" height="123" viewBox="0 0 1321 123" fill="none" xmlns="http://www.w3.org/2000/svg">
<path opacity="0.3" d="M1199.54 50H95.1214V48.2895H1199.54V50ZM1035.15 53.1184H95.1214V54.8289H1035.15V53.1184ZM870.755 57.9474H95.1214V59.6579H870.755V57.9474ZM1035.15 43.4605H95.1214V45.1711H1035.15V43.4605ZM870.755 38.6316H95.1214V40.3421H870.755V38.6316ZM1321 28.9737H216.583V30.6842H1321V28.9737ZM1156.61 33.8026H216.583V35.5132H1156.61V33.8026ZM1156.61 24.1447H216.583V25.8553H1156.61V24.1447ZM897.306 19.3158H121.672V21.0263H897.306V19.3158ZM1226.09 9.6579H121.672V11.3684H1226.09V9.6579ZM1061.7 14.4868H121.672V16.1974H1061.7V14.4868ZM1061.7 4.82895H121.672V6.53947H1061.7V4.82895ZM897.306 0H121.672V1.71053H897.306V0ZM982.97 111.632H70.248V113.342H982.956V111.632H982.97ZM818.578 116.461H70.248V118.171H818.565V116.461H818.578ZM654.186 121.289H70.248V123H654.173V121.289H654.186ZM818.578 106.803H70.248V108.513H818.565V106.803H818.578ZM654.186 101.974H70.248V103.684H654.173V101.974H654.186ZM1321 92.3158H216.583V94.0263H1321V92.3158ZM1090.16 97.1447H0V98.8553H1090.16V97.1447ZM1156.61 87.4868H216.583V89.1974H1156.61V87.4868ZM1090.16 82.6579H121.672V84.3684H1090.16V82.6579ZM1226.09 73H121.672V74.7105H1226.09V73ZM1061.7 77.8289H121.672V79.5395H1061.7V77.8289ZM1061.7 68.1711H121.672V69.8816H1061.7V68.1711ZM897.306 63.3421H121.672V65.0526H897.306V63.3421Z" fill="white"/>
</svg>
